<svg xmlns="http://www.w3.org/2000/svg" viewBox="0 0 32 32">
  <!-- 달력 + 재생: 방송 달력. 브라우저 테마에 따라 검정/흰색 -->
  <style>path, rect { fill: #000; } @media (prefers-color-scheme: dark) { path, rect { fill: #fff; } }</style>
  <path fill-rule="evenodd" d="M7 4h18a5 5 0 0 1 5 5v16a5 5 0 0 1-5 5H7a5 5 0 0 1-5-5V9a5 5 0 0 1 5-5zm-1 8v13a1 1 0 0 0 1 1h18a1 1 0 0 0 1-1V12z"/>
  <rect x="8" y="0" width="4" height="8" rx="2"/>
  <rect x="20" y="0" width="4" height="8" rx="2"/>
  <path d="M14 15.5v7a1 1 0 0 0 1.5.87l6-3.5a1 1 0 0 0 0-1.74l-6-3.5A1 1 0 0 0 14 15.5z"/>
</svg>
